solid OpenSCAD_Model
  facet normal -1 0 0
    outer loop
      vertex -43.25 31.95 0
      vertex -43.25 10.95 4
      vertex -43.25 31.95 4
    endloop
  endfacet
  facet normal -1 0 0
    outer loop
      vertex -43.25 10.95 4
      vertex -43.25 6.95 4
      vertex -43.25 10.95 9
    endloop
  endfacet
  facet normal -1 0 0
    outer loop
      vertex -43.25 31.95 0
      vertex -43.25 6.95 4
      vertex -43.25 10.95 4
    endloop
  endfacet
  facet normal -1 0 0
    outer loop
      vertex -43.25 -31.95 0
      vertex -43.25 6.95 4
      vertex -43.25 31.95 0
    endloop
  endfacet
  facet normal -1 -0 0
    outer loop
      vertex -43.25 6.95 4
      vertex -43.25 -31.95 0
      vertex -43.25 -20.8807 4
    endloop
  endfacet
  facet normal -1 -0 0
    outer loop
      vertex -43.25 -20.8807 4
      vertex -43.25 -31.95 0
      vertex -43.25 -25.0218 4
    endloop
  endfacet
  facet normal -1 -0 0
    outer loop
      vertex -43.25 -25.0218 4
      vertex -43.25 -31.95 0
      vertex -43.25 -31.95 4
    endloop
  endfacet
  facet normal -1 -0 0
    outer loop
      vertex -43.25 10.95 9
      vertex -43.25 6.95 4
      vertex -43.25 6.95 9
    endloop
  endfacet
  facet normal -1 0 0
    outer loop
      vertex -43.25 -25.0218 4
      vertex -43.25 -31.1896 42.4735
      vertex -43.25 -20.8807 4
    endloop
  endfacet
  facet normal -1 0 -0
    outer loop
      vertex -43.25 -31.1896 42.4735
      vertex -43.25 -25.0218 4
      vertex -43.25 -35.0533 41.4382
    endloop
  endfacet
  facet normal -0 0 1
    outer loop
      vertex -43.25 -25.0218 4
      vertex 43.25 -31.95 4
      vertex 43.25 -25.0218 4
    endloop
  endfacet
  facet normal 0 0 1
    outer loop
      vertex 43.25 -31.95 4
      vertex -43.25 -25.0218 4
      vertex -43.25 -31.95 4
    endloop
  endfacet
  facet normal -0 0 1
    outer loop
      vertex -43.25 31.95 4
      vertex 43.25 10.95 4
      vertex 43.25 31.95 4
    endloop
  endfacet
  facet normal 0 0 1
    outer loop
      vertex 43.25 10.95 4
      vertex -43.25 31.95 4
      vertex -43.25 10.95 4
    endloop
  endfacet
  facet normal -0 0 1
    outer loop
      vertex -43.25 6.95 4
      vertex 43.25 -20.8807 4
      vertex 43.25 6.95 4
    endloop
  endfacet
  facet normal 0 0 1
    outer loop
      vertex 43.25 -20.8807 4
      vertex -43.25 6.95 4
      vertex -43.25 -20.8807 4
    endloop
  endfacet
  facet normal 1 0 0
    outer loop
      vertex 43.25 10.95 9
      vertex 43.25 6.95 9
      vertex 43.25 10.95 4
    endloop
  endfacet
  facet normal 1 -0 0
    outer loop
      vertex 43.25 10.95 4
      vertex 43.25 31.95 0
      vertex 43.25 31.95 4
    endloop
  endfacet
  facet normal 1 0 0
    outer loop
      vertex 43.25 6.95 4
      vertex 43.25 10.95 4
      vertex 43.25 6.95 9
    endloop
  endfacet
  facet normal 1 -0 0
    outer loop
      vertex 43.25 6.95 4
      vertex 43.25 31.95 0
      vertex 43.25 10.95 4
    endloop
  endfacet
  facet normal 1 0 0
    outer loop
      vertex 43.25 -31.95 0
      vertex 43.25 6.95 4
      vertex 43.25 -20.8807 4
    endloop
  endfacet
  facet normal 1 0 0
    outer loop
      vertex 43.25 -31.95 0
      vertex 43.25 -20.8807 4
      vertex 43.25 -25.0218 4
    endloop
  endfacet
  facet normal 1 0 0
    outer loop
      vertex 43.25 -31.95 0
      vertex 43.25 -25.0218 4
      vertex 43.25 -31.95 4
    endloop
  endfacet
  facet normal 1 0 0
    outer loop
      vertex 43.25 6.95 4
      vertex 43.25 -31.95 0
      vertex 43.25 31.95 0
    endloop
  endfacet
  facet normal 1 0 0
    outer loop
      vertex 43.25 -31.1896 42.4735
      vertex 43.25 -25.0218 4
      vertex 43.25 -20.8807 4
    endloop
  endfacet
  facet normal 1 0 0
    outer loop
      vertex 43.25 -25.0218 4
      vertex 43.25 -31.1896 42.4735
      vertex 43.25 -35.0533 41.4382
    endloop
  endfacet
  facet normal 0 0 -1
    outer loop
      vertex -43.25 -31.95 0
      vertex 43.25 31.95 0
      vertex 43.25 -31.95 0
    endloop
  endfacet
  facet normal -0 0 -1
    outer loop
      vertex 43.25 31.95 0
      vertex -43.25 -31.95 0
      vertex -43.25 31.95 0
    endloop
  endfacet
  facet normal 0 -1 0
    outer loop
      vertex -43.25 -31.95 0
      vertex 43.25 -31.95 4
      vertex -43.25 -31.95 4
    endloop
  endfacet
  facet normal 0 -1 -0
    outer loop
      vertex 43.25 -31.95 4
      vertex -43.25 -31.95 0
      vertex 43.25 -31.95 0
    endloop
  endfacet
  facet normal 0 1 -0
    outer loop
      vertex 43.25 31.95 0
      vertex -43.25 31.95 4
      vertex 43.25 31.95 4
    endloop
  endfacet
  facet normal 0 1 0
    outer loop
      vertex -43.25 31.95 4
      vertex 43.25 31.95 0
      vertex -43.25 31.95 0
    endloop
  endfacet
  facet normal -0 0 1
    outer loop
      vertex -43.25 10.95 9
      vertex 43.25 6.95 9
      vertex 43.25 10.95 9
    endloop
  endfacet
  facet normal 0 0 1
    outer loop
      vertex 43.25 6.95 9
      vertex -43.25 10.95 9
      vertex -43.25 6.95 9
    endloop
  endfacet
  facet normal 0 -1 0
    outer loop
      vertex -43.25 6.95 4
      vertex 43.25 6.95 9
      vertex -43.25 6.95 9
    endloop
  endfacet
  facet normal 0 -1 -0
    outer loop
      vertex 43.25 6.95 9
      vertex -43.25 6.95 4
      vertex 43.25 6.95 4
    endloop
  endfacet
  facet normal 0 1 -0
    outer loop
      vertex 43.25 10.95 4
      vertex -43.25 10.95 9
      vertex 43.25 10.95 9
    endloop
  endfacet
  facet normal 0 1 0
    outer loop
      vertex -43.25 10.95 9
      vertex 43.25 10.95 4
      vertex -43.25 10.95 4
    endloop
  endfacet
  facet normal 0 -0.258825 0.965924
    outer loop
      vertex -43.25 -31.1896 42.4735
      vertex 43.25 -35.0533 41.4382
      vertex 43.25 -31.1896 42.4735
    endloop
  endfacet
  facet normal 0 -0.258825 0.965924
    outer loop
      vertex 43.25 -35.0533 41.4382
      vertex -43.25 -31.1896 42.4735
      vertex -43.25 -35.0533 41.4382
    endloop
  endfacet
  facet normal 0 0.965926 0.258818
    outer loop
      vertex 43.25 -20.8807 4
      vertex -43.25 -31.1896 42.4735
      vertex 43.25 -31.1896 42.4735
    endloop
  endfacet
  facet normal 0 0.965926 0.258818
    outer loop
      vertex -43.25 -31.1896 42.4735
      vertex 43.25 -20.8807 4
      vertex -43.25 -20.8807 4
    endloop
  endfacet
  facet normal 0 -0.965926 -0.258818
    outer loop
      vertex -43.25 -25.0218 4
      vertex 43.25 -35.0533 41.4382
      vertex -43.25 -35.0533 41.4382
    endloop
  endfacet
  facet normal 0 -0.965926 -0.258818
    outer loop
      vertex 43.25 -35.0533 41.4382
      vertex -43.25 -25.0218 4
      vertex 43.25 -25.0218 4
    endloop
  endfacet
endsolid OpenSCAD_Model
